<?xml version="1.0" standalone="no"?>
<!DOCTYPE svg PUBLIC "-//W3C//DTD SVG 20010904//EN"
 "http://www.w3.org/TR/2001/REC-SVG-20010904/DTD/svg10.dtd">
<svg version="1.0" xmlns="http://www.w3.org/2000/svg"
 width="332.000000pt" height="329.000000pt" viewBox="0 0 332.000000 329.000000"
 preserveAspectRatio="xMidYMid meet">
<g transform="translate(0.000000,329.000000) scale(0.100000,-0.100000)"
fill="#000000" stroke="none">
<path d="M1120 3235 l0 -55 540 0 540 0 0 55 0 55 -540 0 -540 0 0 -55z"/>
<path d="M480 3269 c-152 -18 -250 -60 -323 -138 -97 -103 -126 -218 -134
-518 l-6 -203 57 0 56 0 0 135 c0 337 44 487 162 554 82 47 168 62 386 68
l192 6 0 53 0 54 -157 -1 c-87 -1 -192 -5 -233 -10z"/>
<path d="M2442 3236 c-1 -26 -4 -50 -6 -55 -3 -4 81 -11 187 -14 279 -8 384
-33 461 -113 70 -72 93 -176 103 -456 l6 -188 55 0 55 0 -6 213 c-4 136 -11
237 -21 281 -34 151 -107 254 -219 309 -96 47 -164 58 -398 64 l-216 6 -1 -47z"/>
<path d="M10 1650 l0 -550 55 0 55 0 0 550 0 550 -55 0 -55 0 0 -550z"/>
<path d="M3200 1650 l0 -550 55 0 55 0 0 550 0 550 -55 0 -55 0 0 -550z"/>
<path d="M880 2164 c-50 -22 -79 -52 -106 -109 -28 -60 -30 -116 -5 -170 22
-48 51 -75 111 -106 122 -63 250 5 250 134 0 185 -121 307 -250 251z"/>
<path d="M2315 2165 c-74 -37 -125 -140 -125 -252 0 -55 24 -101 73 -137 56
-41 173 -19 246 47 33 30 61 95 61 142 0 47 -37 130 -71 162 -54 49 -130 65
-184 38z"/>
<path d="M1674 1679 c-14 -16 -18 -33 -16 -81 4 -91 -17 -217 -37 -228 -10 -5
-23 -5 -32 1 -57 36 -133 -23 -109 -86 23 -61 133 -84 210 -45 50 25 72 58
100 147 19 59 22 88 18 167 -3 83 -7 99 -28 121 -30 31 -79 34 -106 4z"/>
<path d="M1054 958 c12 -66 181 -193 314 -238 200 -66 454 -75 562 -20 98 50
109 190 15 190 -20 0 -41 -11 -66 -36 -34 -34 -40 -35 -125 -41 -152 -9 -353
36 -453 102 -38 25 -79 41 -144 55 -50 11 -95 20 -100 20 -5 0 -7 -15 -3 -32z"/>
<path d="M13 638 c3 -164 8 -218 25 -281 52 -190 159 -298 337 -338 65 -15
308 -18 435 -5 l75 7 -3 55 -4 56 -71 -6 c-195 -15 -269 -16 -351 -6 -254 32
-336 171 -336 568 l0 152 -56 0 -56 0 5 -202z"/>
<path d="M3200 698 c0 -323 -53 -469 -193 -538 -85 -41 -187 -51 -395 -39 -91
6 -165 9 -167 7 -1 -2 -5 -26 -8 -55 l-6 -52 57 -7 c31 -5 140 -8 242 -9 164
0 193 3 255 22 235 74 325 249 325 636 l0 177 -55 0 -55 0 0 -142z"/>
<path d="M1120 85 l0 -55 540 0 540 0 0 55 0 55 -540 0 -540 0 0 -55z"/>
</g>
</svg>
